HIERARCHY
ROOT hip
{
  OFFSET 0 0 0
  CHANNELS 6 Xposition Yposition Zposition Zrotation Yrotation Xrotation
  JOINT abdomen
  {
    OFFSET 0 20.6881 -0.73152
    CHANNELS 3 Zrotation Xrotation Yrotation
    JOINT chest
    {
      OFFSET 0 11.7043 -0.48768
      CHANNELS 3 Zrotation Xrotation Yrotation
      JOINT neck
      {
        OFFSET 0 22.1894 -2.19456
        CHANNELS 3 Zrotation Xrotation Yrotation
        JOINT head
        {
          OFFSET -0.24384 7.07133 1.2192
          CHANNELS 3 Zrotation Xrotation Yrotation
          JOINT leftEye
          {
            OFFSET 4.14528 8.04674 8.04672
            CHANNELS 3 Zrotation Xrotation Yrotation
            End Site
            {
              OFFSET 1 0 0
            }
          }
          JOINT rightEye
          {
            OFFSET -3.6576 8.04674 8.04672
            CHANNELS 3 Zrotation Xrotation Yrotation
            End Site
            {
              OFFSET 1 0 0
            }
          }
        }
      }
      JOINT rCollar
      {
        OFFSET -2.68224 19.2634 -4.8768
        CHANNELS 3 Zrotation Xrotation Yrotation
        JOINT rShldr
        {
          OFFSET -8.77824 -1.95073 1.46304
          CHANNELS 3 Zrotation Xrotation Yrotation
          JOINT rForeArm
          {
            OFFSET -28.1742 -1.7115 0.48768
            CHANNELS 3 Zrotation Xrotation Yrotation
            JOINT rHand
            {
              OFFSET -22.5879 0.773209 7.07136
              CHANNELS 3 Zrotation Xrotation Yrotation
              JOINT rThumb1
              {
                OFFSET -1.2192 -0.487915 3.41376
                CHANNELS 3 Zrotation Xrotation Yrotation
                JOINT rThumb2
                {
                  OFFSET -3.37035 -0.52449 3.41376
                  CHANNELS 3 Zrotation Xrotation Yrotation
                  End Site
                  {
                    OFFSET -1.78271 -1.18214 1.43049
                  }
                }
              }
              JOINT rIndex1
              {
                OFFSET -7.75947 0.938293 5.60832
                CHANNELS 3 Zrotation Xrotation Yrotation
                JOINT rIndex2
                {
                  OFFSET -2.54057 -0.884171 1.56538
                  CHANNELS 3 Zrotation Xrotation Yrotation
                  End Site
                  {
                    OFFSET -1.62519 -0.234802 1.16502
                  }
                }
              }
              JOINT rMid1
              {
                OFFSET -8.24714 1.18213 3.41376
                CHANNELS 3 Zrotation Xrotation Yrotation
                JOINT rMid2
                {
                  OFFSET -3.10165 -0.590103 1.0647
                  CHANNELS 3 Zrotation Xrotation Yrotation
                  End Site
                  {
                    OFFSET -2.48547 -0.328903 0.83742
                  }
                }
              }
              JOINT rRing1
              {
                OFFSET -8.82822 0.546677 1.51678
                CHANNELS 3 Zrotation Xrotation Yrotation
                JOINT rRing2
                {
                  OFFSET -2.60934 -0.819778 -0.0198488
                  CHANNELS 3 Zrotation Xrotation Yrotation
                  End Site
                  {
                    OFFSET -2.33842 -0.294052 0.168128
                  }
                }
              }
              JOINT rPinky1
              {
                OFFSET -8.27202 -0.0477905 -0.4584
                CHANNELS 3 Zrotation Xrotation Yrotation
                JOINT rPinky2
                {
                  OFFSET -1.82734 -0.647385 -0.700984
                  CHANNELS 3 Zrotation Xrotation Yrotation
                  End Site
                  {
                    OFFSET -1.69225 -0.51767 -0.607171
                  }
                }
              }
            }
          }
        }
      }
      JOINT lCollar
      {
        OFFSET 2.68224 19.2634 -4.8768
        CHANNELS 3 Zrotation Xrotation Yrotation
        JOINT lShldr
        {
          OFFSET 8.77824 -1.95073 1.46304
          CHANNELS 3 Zrotation Xrotation Yrotation
          JOINT lForeArm
          {
            OFFSET 28.1742 -1.7115 0.48768
            CHANNELS 3 Zrotation Xrotation Yrotation
            JOINT lHand
            {
              OFFSET 22.5879 0.773209 7.07136
              CHANNELS 3 Zrotation Xrotation Yrotation
              JOINT lThumb1
              {
                OFFSET 1.2192 -0.487915 3.41376
                CHANNELS 3 Zrotation Xrotation Yrotation
                JOINT lThumb2
                {
                  OFFSET 3.37035 -0.52449 3.41376
                  CHANNELS 3 Zrotation Xrotation Yrotation
                  End Site
                  {
                    OFFSET 1.78271 -1.18214 1.43049
                  }
                }
              }
              JOINT lIndex1
              {
                OFFSET 7.75947 0.938293 5.60832
                CHANNELS 3 Zrotation Xrotation Yrotation
                JOINT lIndex2
                {
                  OFFSET 2.54057 -0.884171 1.56538
                  CHANNELS 3 Zrotation Xrotation Yrotation
                  End Site
                  {
                    OFFSET 1.62519 -0.234802 1.16502
                  }
                }
              }
              JOINT lMid1
              {
                OFFSET 8.24714 1.18213 3.41376
                CHANNELS 3 Zrotation Xrotation Yrotation
                JOINT lMid2
                {
                  OFFSET 3.10165 -0.590103 1.0647
                  CHANNELS 3 Zrotation Xrotation Yrotation
                  End Site
                  {
                    OFFSET 2.48547 -0.328903 0.83742
                  }
                }
              }
              JOINT lRing1
              {
                OFFSET 8.82822 0.546677 1.51678
                CHANNELS 3 Zrotation Xrotation Yrotation
                JOINT lRing2
                {
                  OFFSET 2.60934 -0.819778 -0.0198488
                  CHANNELS 3 Zrotation Xrotation Yrotation
                  End Site
                  {
                    OFFSET 2.33842 -0.294052 0.168128
                  }
                }
              }
              JOINT lPinky1
              {
                OFFSET 8.27202 -0.0477905 -0.4584
                CHANNELS 3 Zrotation Xrotation Yrotation
                JOINT lPinky2
                {
                  OFFSET 1.82734 -0.647385 -0.700984
                  CHANNELS 3 Zrotation Xrotation Yrotation
                  End Site
                  {
                    OFFSET 1.69225 -0.51767 -0.607171
                  }
                }
              }
            }
          }
        }
      }
    }
  }
  JOINT rButtock
  {
    OFFSET -8.77824 4.35084 1.2192
    CHANNELS 3 Zrotation Xrotation Yrotation
    JOINT rThigh
    {
      OFFSET 0 -1.70687 -2.19456
      CHANNELS 3 Zrotation Xrotation Yrotation
      JOINT rShin
      {
        OFFSET 0 -36.8199 0.73152
        CHANNELS 3 Zrotation Xrotation Yrotation
        JOINT rFoot
        {
          OFFSET 0.73152 -45.1104 -5.12064
          CHANNELS 3 Zrotation Xrotation Yrotation
          End Site
          {
            OFFSET -1.1221 -3.69964 12.103
          }
        }
      }
    }
  }
  JOINT lButtock
  {
    OFFSET 8.77824 4.35084 1.2192
    CHANNELS 3 Zrotation Xrotation Yrotation
    JOINT lThigh
    {
      OFFSET 0 -1.70687 -2.19456
      CHANNELS 3 Zrotation Xrotation Yrotation
      JOINT lShin
      {
        OFFSET 0 -36.8199 0.73152
        CHANNELS 3 Zrotation Xrotation Yrotation
        JOINT lFoot
        {
          OFFSET -0.73152 -45.1104 -5.12064
          CHANNELS 3 Zrotation Xrotation Yrotation
          End Site
          {
            OFFSET 1.1221 -3.69964 12.103
          }
        }
      }
    }
  }
}
MOTION
Frames:	4
Frame Time:	0.00833333
35.7972 84.3737 52.4698 0.0 0.0 0.0 -1.03708 -0.00414391 -0.0286009 -0.285924 -0.00382681 -0.0495332 7.36988e-15 0.0 3.35449e-16 2.20837e-14 3.18055e-15 9.67522e-16 -0.0 0.0 0.0 -0.0 0.0 0.0 3.67632e-15 1.16475e-18 2.48481e-16 8.14968e-14 2.48481e-17 4.96962e-15 1.349e-12 -4.089e-13 4.45278e-14 1.54865e-11 4.01172e-13 7.21986e-13 3.65264e-11 -1.95788e-14 1.68251e-12 6.30803e-11 -3.49861e-14 2.90146e-12 3.65342e-11 -1.39149e-14 1.66025e-12 7.73091 5.47488 0.417314 3.65265e-11 -1.89839e-14 1.67615e-12 2.90554 0.965183 0.102902 3.65374e-11 -1.90833e-14 1.67933e-12 10.2786 0.731801 0.0259123 3.65243e-11 -1.94809e-14 1.68887e-12 2.22167 -0.733487 -0.20892 3.67896e-15 7.76503e-19 4.96962e-17 7.63885e-14 2.17421e-16 2.78299e-15 1.35372e-12 4.08105e-13 5.725e-14 1.54922e-11 -4.05744e-13 7.09264e-13 3.65472e-11 -7.25292e-16 1.66979e-12 6.31233e-11 0.0 2.88635e-12 3.65414e-11 -3.97569e-16 1.67933e-12 -7.73091 5.47488 -0.417314 3.65475e-11 -5.96354e-16 1.67297e-12 -2.90554 0.965183 -0.102902 3.65436e-11 -8.94531e-16 1.67218e-12 -10.2786 0.731801 -0.0259123 3.65539e-11 7.95139e-16 1.66025e-12 -2.22167 -0.733487 0.20892 -2.03217e-16 0.0 -3.88251e-19 -0.272305 -1.9197 -0.0125494 -0.00938895 -2.07854 -0.0776154 -0.51383 3.99653 0.140543 2.03217e-16 0.0 3.88251e-19 -1.30441 -5.55702 0.114001 -0.000208249 4.50998 -0.0271538 0.526803 1.04548 -0.081482
35.7571 82.7512 41.6148 177.201 5.4623 178.196 -2.98046 4.15671 0.411263 0.605778 -1.38819 0.0745936 1.26914 -2.93556 0.726582 -0.99517 -2.09534 0.784017 -0.0 0.0 0.0 -0.0 0.0 0.0 -4.11246e-14 -1.02116e-14 3.61606e-14 8.68601 -0.29957 15.6113 -17.2695 -14.7522 14.9911 0.0163788 -2.83946 -0.397292 1.04947e-10 2.73064e-10 1.28761e-10 1.79386e-10 4.70599e-10 2.23724e-10 1.04953e-10 2.73068e-10 1.28738e-10 7.73091 5.47488 0.417314 1.0495e-10 2.73067e-10 1.28754e-10 2.90554 0.965183 0.102902 1.04958e-10 2.73064e-10 1.28758e-10 10.2786 0.731801 0.0259123 1.04944e-10 2.73064e-10 1.28768e-10 2.22167 -0.733487 -0.20892 -4.11349e-14 -1.02122e-14 3.59754e-14 -7.64309 -2.9874 -14.8193 17.1387 -14.607 -14.9734 -0.0097344 -2.18882 0.306807 9.17838e-12 8.52633e-10 -7.54209e-10 2.11773e-11 1.46793e-09 -1.30459e-09 9.17188e-12 8.52636e-10 -7.54197e-10 -7.73091 5.47488 -0.417314 9.17858e-12 8.52632e-10 -7.54207e-10 -2.90554 0.965183 -0.102902 9.17469e-12 8.52631e-10 -7.54208e-10 -10.2786 0.731801 -0.0259123 9.18575e-12 8.52633e-10 -7.54217e-10 -2.22167 -0.733487 0.20892 -2.03217e-16 0.0 -3.88251e-19 -3.82876 -9.18017 -2.07842 -0.0106674 11.6994 0.0966991 -0.0700003 0.293603 4.2242 2.03217e-16 0.0 3.88251e-19 1.28732 -11.316 2.6151 0.00282729 16.0718 -0.197051 0.0848765 -3.03992 -2.69044
35.8343 82.7375 41.6391 177.509 5.5772 178.3 -5.10751 8.5549 0.883671 1.55572 -2.85151 0.205838 2.69313 -6.03752 1.50152 -1.98514 -4.30779 1.61669 -0.0 0.0 0.0 -0.0 0.0 0.0 -9.07667e-14 -2.08715e-14 7.69638e-14 18.0364 -0.542215 32.1165 -26.6958 -26.8532 33.8511 -0.0093261 -5.8407 -0.820539 1.8279e-10 5.69809e-10 2.63971e-10 3.11817e-10 9.82056e-10 4.58729e-10 1.82793e-10 5.69813e-10 2.63948e-10 7.73091 5.47488 0.417314 1.82794e-10 5.69816e-10 2.63964e-10 2.90554 0.965183 0.102902 1.82799e-10 5.6981e-10 2.63967e-10 10.2786 0.731801 0.0259123 1.82785e-10 5.69811e-10 2.63979e-10 2.22167 -0.733487 -0.20892 -9.07887e-14 -2.08726e-14 7.6793e-14 -17.3297 -5.47501 -30.5981 26.5399 -26.5991 -33.7479 0.00553562 -4.50266 0.632661 -2.13759e-11 1.80822e-09 -1.60107e-09 -2.56344e-11 3.11314e-09 -2.76946e-09 -2.13831e-11 1.80823e-09 -1.60106e-09 -7.73091 5.47488 -0.417314 -2.13759e-11 1.80822e-09 -1.60107e-09 -2.90554 0.965183 -0.102902 -2.13798e-11 1.80822e-09 -1.60107e-09 -10.2786 0.731801 -0.0259123 -2.13679e-11 1.80822e-09 -1.60108e-09 -2.22167 -0.733487 0.20892 -2.03217e-16 0.0 -3.88251e-19 -8.18315 -16.8204 -4.39657 -0.111245 26.2646 0.308652 0.971756 -3.57936 8.55833 2.03217e-16 0.0 3.88251e-19 4.59593 -17.3541 5.40134 0.0903223 28.293 -0.409908 -0.789144 -7.33197 -5.48549
35.784 82.7443 41.6266 177.304 5.5168 178.247 -7.06276 12.4755 1.31889 2.40721 -4.15685 0.323633 4.03299 -8.80097 2.20284 -2.81265 -6.2813 2.36468 -0.0 0.0 0.0 -0.0 0.0 0.0 -1.30727e-13 -3.0637e-14 1.07985e-13 26.4875 -0.638364 46.8371 -28.2916 -31.3255 53.6293 -0.0701096 -8.51674 -1.20369 2.41789e-10 8.1923e-10 3.82917e-10 4.11997e-10 1.41187e-09 6.6537e-10 2.41791e-10 8.19232e-10 3.82895e-10 7.73091 5.47488 0.417314 2.41796e-10 8.19239e-10 3.8291e-10 2.90554 0.965183 0.102902 2.41798e-10 8.1923e-10 3.82914e-10 10.2786 0.731801 0.0259123 2.41783e-10 8.19232e-10 3.82927e-10 2.22167 -0.733487 -0.20892 -1.30763e-13 -3.06383e-14 1.07827e-13 -27.0737 -6.6094 -44.7725 28.2086 -31.0691 -53.3882 0.0415128 -6.56569 0.925823 -4.55593e-11 2.5579e-09 -2.26597e-09 -6.27145e-11 4.4038e-09 -3.91954e-09 -4.55671e-11 2.55791e-09 -2.26595e-09 -7.73091 5.47488 -0.417314 -4.55593e-11 2.5579e-09 -2.26597e-09 -2.90554 0.965183 -0.102902 -4.55632e-11 2.5579e-09 -2.26597e-09 -10.2786 0.731801 -0.0259123 -4.55506e-11 2.5579e-09 -2.26597e-09 -2.22167 -0.733487 0.20892 -2.03217e-16 0.0 -3.88251e-19 -12.6336 -23.575 -6.69096 -0.318931 39.2541 0.56719 2.39642 -6.94341 12.4851 2.03217e-16 0.0 3.88251e-19 8.08919 -22.6637 8.0945 0.268569 39.1939 -0.663103 -1.92894 -11.113 -8.04892
